<svg width="98" height="98" viewBox="0 0 98 98" xmlns="http://www.w3.org/2000/svg">
<path d="M96.5435 60.8232C90.005 87.0572 63.4344 103.077 37.1522 96.5341C10.9182 89.9756 -5.07549 63.4049 1.46299 37.1709C8.00148 10.937 34.5561 -5.08244 60.7741 1.46002C87.0723 7.9223 103.066 34.5732 96.5435 60.8232Z" />
<path d="M45.4344 62.3067C42.6705 62.3067 39.9983 61.7697 37.4833 60.6956C35.0469 59.6608 32.8594 58.1937 30.9862 56.3206C29.1131 54.4475 27.6329 52.26 26.6112 49.8236C25.5502 47.2955 25 44.6234 25 41.8726C25 39.1219 25.5371 36.4366 26.6112 33.9216C27.646 31.4853 29.1131 29.2978 30.9862 27.4246C32.8594 25.5515 35.0469 24.0713 37.4833 23.0496C40.0114 21.9886 42.6836 21.4385 45.4344 21.4385C48.1852 21.4385 50.8704 21.9755 53.3854 23.0496C55.8218 24.0844 58.0094 25.5515 59.8825 27.4246C61.7557 29.2978 63.2358 31.4853 64.2576 33.9216C65.3186 36.4497 65.8687 39.1219 65.8687 41.8726C65.8687 44.6234 65.3317 47.3086 64.2576 49.8236C63.2228 52.26 61.7557 54.4475 59.8825 56.3206C58.0094 58.1937 55.8218 59.6739 53.3854 60.6956C50.8704 61.7566 48.1983 62.3067 45.4344 62.3067ZM45.4344 28.0403C37.8108 28.0403 31.615 34.236 31.615 41.8595C31.615 49.483 37.8239 55.6918 45.4475 55.6918C53.0711 55.6918 59.28 49.483 59.28 41.8595C59.2669 34.236 53.058 28.0403 45.4344 28.0403Z" fill="rgba(0,0,0,1)"/>
<path d="M69.3017 27.9486C71.0814 27.9486 72.5241 26.506 72.5241 24.7263C72.5241 22.9467 71.0814 21.504 69.3017 21.504C67.5221 21.504 66.0794 22.9467 66.0794 24.7263C66.0794 26.506 67.5221 27.9486 69.3017 27.9486Z" fill="rgba(0,0,0,1)"/>
<path d="M48.8268 82.6885C47.9754 82.6885 47.137 82.361 46.4952 81.7192C45.1984 80.4224 45.1984 78.3397 46.4952 77.0429L60.2491 63.2891C61.5459 61.9924 63.6286 61.9924 64.9254 63.2891C66.2222 64.5859 66.2222 66.6686 64.9254 67.9654L51.1715 81.7192C50.5166 82.3741 49.6651 82.6885 48.8268 82.6885Z" fill="rgba(0,0,0,1)"/>
<!-- <defs>
<linearGradient id="paint0_linear_1160_23570" x1="13.4319" y1="-22.6617" x2="77.7534" y2="84.5425" gradientUnits="userSpaceOnUse">
<stop stop-color="#00D1E6"/>
<stop offset="1" stop-color="#2B4DD4"/>
</linearGradient>
</defs> -->
</svg>
